<svg width="249" height="135" viewBox="0 0 249 135" fill="none" xmlns="http://www.w3.org/2000/svg">
<path d="M81.8281 68.75C81.8281 59.9062 79.7812 52.7969 75.6875 47.4219C71.5938 42.0469 66.2188 39.3594 59.5625 39.3594C53.1875 39.3594 48.0938 41.75 44.2812 46.5312C40.5 51.3125 38.6094 57.7812 38.6094 65.9375C38.6094 74.8438 40.6719 82 44.7969 87.4062C48.9531 92.8125 54.3438 95.5156 60.9688 95.5156C67.375 95.5156 72.4531 93.125 76.2031 88.3438C79.9531 83.5625 81.8281 77.0312 81.8281 68.75ZM60.3125 32.375C65.2812 32.375 69.7188 33.0625 73.625 34.4375C77.5312 35.7812 81.125 37.875 84.4062 40.7188C88.2188 44.0312 91.1562 47.9844 93.2188 52.5781C95.2812 57.1406 96.3125 61.9844 96.3125 67.1094C96.3125 77.2969 92.8594 85.7812 85.9531 92.5625C79.0469 99.3438 70.4062 102.734 60.0312 102.734C54.625 102.734 49.7344 101.859 45.3594 100.109C40.9844 98.3281 37.1094 95.6875 33.7344 92.1875C30.6094 88.9062 28.2188 85.1719 26.5625 80.9844C24.9375 76.7656 24.125 72.2969 24.125 67.5781C24.125 62.3594 25.1406 57.5156 27.1719 53.0469C29.2344 48.5469 32.2188 44.625 36.125 41.2812C39.375 38.4688 43.125 36.2812 47.375 34.7188C51.625 33.1562 55.9375 32.375 60.3125 32.375ZM112.426 93.5C114.364 93.9375 116.27 94.2656 118.145 94.4844C120.051 94.6719 121.989 94.7656 123.958 94.7656C132.051 94.7656 138.286 92.5312 142.661 88.0625C147.036 83.5938 149.223 77.2188 149.223 68.9375C149.223 59.8438 146.879 52.7969 142.192 47.7969C137.504 42.7656 130.942 40.25 122.504 40.25C121.286 40.25 119.895 40.3125 118.333 40.4375C116.801 40.5312 114.958 40.7188 112.801 41C112.676 48.625 112.583 55.8594 112.52 62.7031C112.458 69.5156 112.426 75.7188 112.426 81.3125V93.5ZM91.2388 101V96.7812C91.4575 96.8125 91.6919 96.8438 91.9419 96.875C92.1919 96.875 92.5669 96.875 93.0669 96.875C95.6606 96.875 97.4106 96.0156 98.3169 94.2969C99.2231 92.5469 99.6763 88.0938 99.6763 80.9375V77.5625V72.5938L99.77 61.4375C99.77 60.9062 99.7856 60.1406 99.8169 59.1406C99.9106 54.5469 99.9575 51.375 99.9575 49.625C99.9575 44.9688 99.5044 41.9062 98.5981 40.4375C97.7231 38.9688 96.0669 38.2344 93.6294 38.2344C93.1606 38.2344 92.8013 38.25 92.5513 38.2812C92.3013 38.2812 92.0825 38.2812 91.895 38.2812V34.1094C94.5825 34.2656 96.9263 34.3906 98.9263 34.4844C100.926 34.5469 102.739 34.5781 104.364 34.5781C107.27 34.5781 110.989 34.4531 115.52 34.2031C120.083 33.9219 123.176 33.7812 124.801 33.7812C136.864 33.7812 146.317 36.7812 153.161 42.7812C160.004 48.75 163.426 56.9531 163.426 67.3906C163.426 77.5156 159.817 85.7031 152.598 91.9531C145.379 98.1719 135.801 101.281 123.864 101.281C122.895 101.281 120.036 101.156 115.286 100.906C110.536 100.656 106.254 100.531 102.442 100.531C101.536 100.531 98.4731 100.656 93.2544 100.906L91.2388 101ZM204.149 36.125V37.1562C204.149 39.4375 204.274 41.7812 204.524 44.1875C204.806 46.5625 205.212 49.0156 205.743 51.5469L200.868 52.3438C200.337 48.2812 198.821 45.2188 196.321 43.1562C193.853 41.0938 190.446 40.0625 186.103 40.0625C182.071 40.0625 178.915 40.8594 176.634 42.4531C174.353 44.0469 173.212 46.25 173.212 49.0625C173.212 50.9375 173.681 52.5625 174.618 53.9375C175.556 55.2812 177.009 56.4688 178.978 57.5C180.509 58.3125 183.149 59.3438 186.899 60.5938C190.681 61.8438 193.478 62.8281 195.29 63.5469C199.384 65.2344 202.446 67.4375 204.478 70.1562C206.54 72.875 207.571 76.1094 207.571 79.8594C207.571 86.6719 204.962 92.1094 199.743 96.1719C194.524 100.234 187.446 102.266 178.509 102.266C175.571 102.266 172.603 101.969 169.603 101.375C166.603 100.812 163.681 99.9844 160.837 98.8906C160.837 98.5469 160.853 98.0938 160.884 97.5312C160.915 96.9375 160.931 96.5 160.931 96.2188C160.931 93.8125 160.774 91.3594 160.462 88.8594C160.181 86.3594 159.728 83.7812 159.103 81.125L164.212 79.8594C165.399 85.6094 167.306 89.625 169.931 91.9062C172.587 94.1875 176.524 95.3281 181.743 95.3281C185.962 95.3281 189.29 94.3906 191.728 92.5156C194.165 90.6406 195.384 88.125 195.384 84.9688C195.384 80.4688 191.087 76.7031 182.493 73.6719C180.587 73.0156 179.134 72.5 178.134 72.125C172.196 69.9062 167.931 67.3281 165.337 64.3906C162.774 61.4531 161.493 57.7812 161.493 53.375C161.493 47.3125 163.837 42.4219 168.524 38.7031C173.212 34.9844 179.415 33.125 187.134 33.125C189.821 33.125 192.54 33.375 195.29 33.875C198.071 34.3438 201.024 35.0938 204.149 36.125ZM213.982 86.3281L218.576 89.375C219.794 90.1562 220.685 90.9531 221.247 91.7656C221.841 92.5781 222.138 93.4531 222.138 94.3906C222.138 95.3281 221.857 96.1875 221.294 96.9688C220.763 97.75 219.857 98.5781 218.576 99.4531L214.169 102.547L209.576 99.3594C208.232 98.4531 207.31 97.6406 206.81 96.9219C206.341 96.1719 206.107 95.3281 206.107 94.3906C206.107 93.4219 206.372 92.5312 206.904 91.7188C207.466 90.9062 208.357 90.0938 209.576 89.2812L213.982 86.3281Z" fill="#EA580C"/>
</svg>
